<?xml version="1.0" encoding="UTF-8"?>
<svg width="626" height="195" viewBox="0 0 626 195" xmlns="http://www.w3.org/2000/svg">
  <rect width="626" height="195" fill="#1a1f28" />
  <rect x="25" y="25" width="64" height="64" fill="#c68b8f" />
  <rect x="89" y="25" width="64" height="64" fill="#ba8873" />
  <rect x="153" y="25" width="64" height="64" fill="#b39b64" />
  <rect x="217" y="25" width="64" height="64" fill="#d5ad75" />
  <rect x="281" y="25" width="64" height="64" fill="#8fb98c" />
  <rect x="345" y="25" width="64" height="64" fill="#4ab5c4" />
  <rect x="409" y="25" width="64" height="64" fill="#618bc2" />
  <rect x="473" y="25" width="64" height="64" fill="#9b88d0" />
  <rect x="537" y="25" width="64" height="64" fill="#cc7dd0" />
  <rect x="25" y="106" width="64" height="64" fill="#141820" />
  <rect x="89" y="106" width="64" height="64" fill="#1a1f28" />
  <rect x="153" y="106" width="64" height="64" fill="#232936" />
  <rect x="409" y="106" width="64" height="64" fill="#323c4d" />
  <rect x="473" y="106" width="64" height="64" fill="#5f7090" />
  <rect x="537" y="106" width="64" height="64" fill="#99a7be" />
</svg>
